<?xml version="1.0" encoding="UTF-8"?>
<svg id="Layer_1" xmlns="http://www.w3.org/2000/svg" version="1.1" viewBox="0 0 452.35 452.35">
  <!-- Generator: Adobe Illustrator 29.6.1, SVG Export Plug-In . SVG Version: 2.1.1 Build 9)  -->
  <defs>
    <style>
      .st0 {
        fill: #fff;
      }
    </style>
  </defs>
  <g>
    <path class="st0" d="M424.69,226.17s-88.88,114.26-198.51,114.26S27.66,226.17,27.66,226.17"/>
    <path d="M424.69,226.17l-71.93,20.47,15.9,15.42c-35.35,30.56-86.36,63.37-142.49,63.37-100.86,0-185.83-107.4-186.67-108.47l-23.68,18.42c.95,1.22,23.74,30.32,60.65,59.66,49.69,39.51,101.45,60.39,149.71,60.39,66.29,0,124.69-37.9,164.11-72.41l16.18,15.68,18.23-72.53Z"/>
  </g>
  <g>
    <path class="st0" d="M27.66,226.17s88.88-114.26,198.51-114.26,198.51,114.26,198.51,114.26"/>
    <path d="M375.88,157.3c-49.68-39.51-101.45-60.39-149.71-60.39-66.29,0-124.69,37.9-164.11,72.41l-16.18-15.68-18.23,72.53,71.93-20.47-15.9-15.42c35.35-30.56,86.36-63.37,142.49-63.37,100.86,0,185.83,107.4,186.67,108.47l23.68-18.42c-.95-1.22-23.74-30.32-60.65-59.66Z"/>
  </g>
  <path d="M227.51,133.84c-50.99,0-92.33,41.34-92.33,92.33s41.34,92.33,92.33,92.33,92.33-41.34,92.33-92.33-41.34-92.33-92.33-92.33ZM221.98,281c-2.84,3.2-9.74,10.57-12.93,12.92-.61.45-1.33.89-2.09,1.01-4.43.7-11.95-3.3-15.9-5.43-13.84-7.48-26.27-18.52-41.84-22.3l13.71-13.63c.62-.39,1.32-.82,2.06-.95,3.93-.69,11.68,3.35,15.27,5.26,13.9,7.4,26.45,18.78,42.06,22.25.11.49-.08.57-.34.87ZM203.01,268.23c-4.32-8.52-18.18-25.43-17.96-34.83.05-2.38,1.07-2.71,2.32-4.09,3.8-4.2,8.06-7.91,11.83-12.13.34-.36.62-.16.87.19.28.4,1.22,4.76,1.64,5.94,5.25,14.61,17.77,27.65,23.77,42.1,9.01,21.7-14.61,8.02-22.47,2.82ZM263.02,239.96c-1.6,2.32-10.15,10.59-12.58,12.59-2.06,1.7-3.45,1.65-6.13,1.28-9.81-1.34-23.64-13.14-32.52-17.83-2.75-4.5-6.08-9.64-7.75-14.66-5.73-17.23,12.66-6.87,19.55-3,8.59,4.83,16.56,10.8,25.28,15.41,4.53,2.4,9.28,4.84,14.49,5.34.14.52-.14.57-.34.86ZM244.07,227.51c-5.14-8.88-11.98-17.68-15.95-27.16-1.25-2.98-3.01-7.43-1.42-10.49,4.36-4.38,8.61-8.89,13.22-13.03.4-.36.08-1.13,1.01-.86,3.01,13.94,12.7,25.55,19.72,37.7,1.89,3.27,4.06,6.89,5.52,10.35,9.37,22.26-13.66,8.7-22.11,3.48ZM290.15,212.61c-.58.23-1.2.52-1.83.59-4.66.54-13.45-4.46-17.61-6.81-3.59-2.02-15.74-8.87-18.04-11.27-1.79-1.86-6.11-10.51-7.16-13.18-7.4-18.85,10.8-9.1,18.77-4.63,13.08,7.33,25.24,17.76,40.12,21.1l-14.24,14.2Z"/>
</svg>